<svg version="1.1" id="Layer_1" xmlns="http://www.w3.org/2000/svg" xmlns:xlink="http://www.w3.org/1999/xlink" x="0px" y="0px" viewBox="0 0 512 512" style="enable-background:new 0 0 474.649 474.649;" xml:space="preserve" width="512" height="512"><path style="fill:#ED7826;" cx="236.967" cy="236.985" r="236.967" d="M511.229 255.634A255.614 255.614 0 0 1 255.614 511.248A255.614 255.614 0 0 1 0 255.634A255.614 255.614 0 0 1 511.229 255.634z"/><path style="fill:#DB6D27;" d="M437.128 75.598c99.824 99.829 99.832 261.678 0 361.514 -99.824 99.824 -261.69 99.829 -361.517 0z"/><path style="fill:#CE6028;" d="M502.213 323.011 318.83 139.637l-37.359 37.364 -102.529 -14.409 21.134 95.8 -73.681 73.681 25.9 25.9 -6.389 6.389 144.469 144.474c102.237 -13.901 185.215 -88.212 211.838 -185.824"/><path style="fill:#FFFFFF;" d="M308.635 390.98c47.854 0 86.727 -38.982 86.998 -86.574l0.537 -70.073 -0.804 -3.814 -2.297 -4.795 -3.891 -3.011c-5.049 -3.956 -30.639 0.266 -37.529 -5.986 -4.884 -4.464 -5.647 -12.532 -7.132 -23.463 -2.749 -21.174 -4.477 -22.28 -7.798 -29.453 -12.048 -25.493 -44.738 -44.649 -67.195 -47.293h-60.834c-47.862 0 -86.989 39.042 -86.989 86.723V304.407c0 47.591 39.123 86.574 86.989 86.574zm-98.836 -203.616h48.225c9.211 0 16.67 7.475 16.67 16.561 0 9.049 -7.459 16.589 -16.67 16.589h-48.225c-9.207 0 -16.654 -7.54 -16.654 -16.589 0.001 -9.086 7.447 -16.561 16.654 -16.561m-16.653 115.755c0 -9.082 7.447 -16.496 16.654 -16.496h97.996c9.151 0 16.577 7.415 16.577 16.496 0 8.968 -7.431 16.5 -16.577 16.5h-97.996c-9.208 0 -16.654 -7.531 -16.654 -16.5"/></svg>
