<svg width="512px" height="512px" viewBox="0 0 10.24 10.24" xmlns="http://www.w3.org/2000/svg"><path fill-rule="evenodd" clip-rule="evenodd" d="M5.105 0A5.105 5.105 0 0 0 0 5.105c0 2.254 1.472 4.164 3.476 4.854 0.251 0.031 0.344 -0.125 0.344 -0.251v-0.877c-1.409 0.314 -1.722 -0.689 -1.722 -0.689 -0.22 -0.595 -0.564 -0.752 -0.564 -0.752 -0.47 -0.313 0.031 -0.313 0.031 -0.313 0.501 0.031 0.783 0.532 0.783 0.532 0.47 0.783 1.19 0.563 1.472 0.438 0.031 -0.344 0.188 -0.563 0.313 -0.689 -1.128 -0.125 -2.317 -0.564 -2.317 -2.537 0 -0.563 0.188 -1.002 0.532 -1.378 -0.032 -0.094 -0.22 -0.626 0.063 -1.315 0 0 0.438 -0.125 1.409 0.532 0.407 -0.125 0.846 -0.157 1.284 -0.157s0.877 0.063 1.284 0.157c0.971 -0.657 1.409 -0.532 1.409 -0.532 0.282 0.689 0.093 1.221 0.062 1.347a2.022 2.022 0 0 1 0.532 1.378c0 1.973 -1.19 2.38 -2.317 2.506 0.188 0.156 0.344 0.469 0.344 0.939v1.409c0 0.125 0.093 0.282 0.344 0.251A5.107 5.107 0 0 0 10.24 5.105C10.209 2.286 7.923 0 5.105 0" fill="#000000"/></svg>
