<svg width="512px" height="512px" viewBox="0 0 30.72 30.72" fill="none" xmlns="http://www.w3.org/2000/svg"><path cx="24" cy="24" r="20" fill="#C13584" d="M28.16 15.36A12.8 12.8 0 0 1 15.36 28.16A12.8 12.8 0 0 1 2.56 15.36A12.8 12.8 0 0 1 28.16 15.36z"/><path d="M15.36 9.064c2.051 0 2.294 0.008 3.103 0.045 0.749 0.035 1.155 0.159 1.426 0.264 0.358 0.14 0.614 0.306 0.883 0.575s0.435 0.525 0.575 0.883c0.105 0.271 0.23 0.677 0.264 1.426 0.037 0.81 0.045 1.053 0.045 3.103s-0.008 2.294 -0.045 3.103c-0.034 0.749 -0.159 1.155 -0.264 1.426 -0.14 0.358 -0.306 0.614 -0.575 0.883s-0.525 0.435 -0.883 0.575c-0.271 0.105 -0.677 0.23 -1.426 0.264 -0.81 0.036 -1.053 0.045 -3.103 0.045s-2.294 -0.008 -3.103 -0.045c-0.749 -0.035 -1.155 -0.159 -1.426 -0.264a2.368 2.368 0 0 1 -0.883 -0.575c-0.269 -0.269 -0.435 -0.525 -0.575 -0.883 -0.105 -0.271 -0.23 -0.677 -0.264 -1.426 -0.037 -0.81 -0.045 -1.053 -0.045 -3.104 0 -2.05 0.008 -2.293 0.045 -3.103 0.035 -0.749 0.159 -1.155 0.264 -1.426 0.14 -0.358 0.306 -0.614 0.575 -0.883s0.525 -0.435 0.883 -0.575c0.271 -0.105 0.677 -0.23 1.426 -0.264 0.81 -0.037 1.053 -0.045 3.103 -0.045M15.36 7.68c-2.086 0 -2.348 0.009 -3.167 0.046 -0.817 0.038 -1.376 0.167 -1.864 0.357a3.776 3.776 0 0 0 -1.361 0.886 3.776 3.776 0 0 0 -0.886 1.361c-0.19 0.488 -0.32 1.046 -0.357 1.864C7.689 13.012 7.68 13.274 7.68 15.36s0.009 2.348 0.046 3.167c0.038 0.817 0.167 1.376 0.357 1.864 0.196 0.506 0.459 0.934 0.886 1.361a3.776 3.776 0 0 0 1.361 0.886c0.488 0.19 1.046 0.32 1.864 0.357 0.819 0.037 1.081 0.046 3.167 0.046s2.348 -0.009 3.167 -0.046c0.817 -0.038 1.376 -0.167 1.864 -0.357a3.776 3.776 0 0 0 1.361 -0.886 3.776 3.776 0 0 0 0.886 -1.361c0.19 -0.488 0.32 -1.046 0.357 -1.864 0.037 -0.819 0.046 -1.081 0.046 -3.167s-0.009 -2.348 -0.046 -3.167c-0.037 -0.817 -0.167 -1.376 -0.357 -1.864a3.776 3.776 0 0 0 -0.886 -1.361 3.776 3.776 0 0 0 -1.36 -0.886c-0.489 -0.19 -1.047 -0.32 -1.864 -0.357C17.708 7.689 17.446 7.68 15.36 7.68" fill="white"/><path d="M15.364 11.42a3.944 3.944 0 1 0 0 7.887 3.944 3.944 0 0 0 0 -7.887m0 6.504a2.56 2.56 0 1 1 0 -5.12 2.56 2.56 0 0 1 0 5.12" fill="white"/><path d="M20.384 11.261a0.922 0.922 0 1 1 -1.843 0 0.922 0.922 0 0 1 1.843 0" fill="white"/></svg>
