<svg xmlns="http://www.w3.org/2000/svg" viewBox="0 0 512 512" xml:space="preserve" width="512" height="512"><path cx="16" cy="16" r="15" style="fill:#fff" d="M496 256A240 240 0 0 1 256 496A240 240 0 0 1 16 256A240 240 0 0 1 496 256z"/><path d="M256 16C123.2 16 16 123.2 16 256c0 94.4 56 177.6 136 216q0 -31.2 4.8 -52.8l30.4 -128c-1.6 -6.4 -8 -19.2 -8 -38.4 0 -40 24 -70.4 54.4 -70.4 24 0 40 17.6 40 44.8 0 16 -6.4 33.6 -12.8 54.4l-9.6 33.6c-1.6 9.6 0 17.6 4.8 25.6 6.4 8 14.4 11.2 25.6 11.2 38.4 0 68.8 -51.2 68.8 -120 0 -51.2 -35.2 -83.2 -91.2 -83.2 -72 0 -110.4 54.4 -110.4 107.2 0 17.6 4.8 30.4 14.4 41.6 4.8 6.4 8 11.2 4.8 20.8l-4.8 19.2c-1.6 4.8 -4.8 9.6 -8 11.2q-7.2 2.4 -14.4 0c-33.6 -14.4 -54.4 -51.2 -54.4 -99.2 0 -78.4 67.2 -158.4 179.2 -158.4 100.8 0 160 73.6 160 145.6 0 99.2 -57.6 172.8 -137.6 172.8 -20.8 0 -41.6 -8 -54.4 -20.8 -4.8 17.6 -11.2 43.2 -12.8 51.2 -4.8 19.2 -16 38.4 -24 51.2 19.2 4.8 38.4 8 59.2 8 132.8 0 240 -107.2 240 -240S388.8 16 256 16" style="fill:#ee1b22"/></svg>
