<?xml version="1.0" encoding="iso-8859-1"?>
<!-- Generator: Adobe Illustrator 19.0.0, SVG Export Plug-In . SVG Version: 6.00 Build 0)  -->
<svg width="512px" height="512px" viewBox="0 0 20.48 20.48" fill="none" xmlns="http://www.w3.org/2000/svg"><path d="M5.409 12.668c0.1 -0.828 0.44 -1.292 1.08 -1.767 0.915 -0.644 2.06 -0.28 2.06 -0.28V8.461q0.419 -0.011 0.832 0.049v2.78s-1.144 -0.364 -2.06 0.28c-0.639 0.475 -0.979 0.939 -1.079 1.766 -0.003 0.45 0.081 1.037 0.47 1.546a3.84 3.84 0 0 1 -0.294 -0.169c-0.856 -0.575 -1.011 -1.437 -1.007 -2.046M14.102 4.467c-0.63 -0.691 -0.868 -1.388 -0.954 -1.877h0.792s-0.158 1.284 0.994 2.547l0.016 0.017a4.48 4.48 0 0 1 -0.848 -0.686M17.92 6.424v2.724s-1.011 -0.04 -1.76 -0.23c-1.044 -0.266 -1.716 -0.674 -1.716 -0.674s-0.464 -0.292 -0.502 -0.312v5.625c0 0.314 -0.086 1.095 -0.348 1.747 -0.341 0.854 -0.868 1.414 -0.965 1.528 0 0 -0.64 0.757 -1.771 1.267 -1.019 0.46 -1.914 0.448 -2.18 0.46 0 0 -1.547 0.061 -2.938 -0.844a5.76 5.76 0 0 1 -0.84 -0.674l0.007 0.005c1.392 0.904 2.938 0.843 2.938 0.843 0.268 -0.012 1.163 0 2.181 -0.46 1.13 -0.51 1.771 -1.267 1.771 -1.267 0.096 -0.115 0.625 -0.675 0.965 -1.528 0.261 -0.652 0.348 -1.434 0.348 -1.747v-5.624c0.038 0.02 0.501 0.312 0.501 0.312s0.672 0.408 1.717 0.675c0.749 0.19 1.759 0.23 1.759 0.23V6.344c0.346 0.077 0.641 0.099 0.832 0.079" fill="#EE1D52"/><path d="M17.088 6.344v2.134s-1.011 -0.04 -1.759 -0.23c-1.045 -0.266 -1.717 -0.674 -1.717 -0.674s-0.464 -0.291 -0.501 -0.312v5.626c0 0.314 -0.086 1.096 -0.348 1.748 -0.341 0.854 -0.868 1.414 -0.965 1.528 0 0 -0.641 0.757 -1.771 1.267 -1.018 0.46 -1.914 0.448 -2.181 0.46 0 0 -1.546 0.061 -2.938 -0.843l-0.006 -0.005a5.12 5.12 0 0 1 -0.415 -0.45c-0.444 -0.541 -0.717 -1.182 -0.785 -1.365v-0.002c-0.11 -0.317 -0.341 -1.08 -0.31 -1.819 0.056 -1.303 0.515 -2.102 0.636 -2.303a5.504 5.504 0 0 1 1.234 -1.444 5.184 5.184 0 0 1 1.466 -0.832 5.12 5.12 0 0 1 1.82 -0.366v2.16s-1.144 -0.363 -2.06 0.28c-0.64 0.475 -0.979 0.939 -1.08 1.766 -0.004 0.61 0.152 1.472 1.007 2.047q0.15 0.095 0.294 0.168c0.149 0.195 0.331 0.364 0.538 0.501 0.836 0.529 1.536 0.566 2.431 0.222 0.596 -0.23 1.046 -0.747 1.254 -1.32 0.131 -0.358 0.129 -0.719 0.129 -1.092V2.589h2.084c0.086 0.49 0.324 1.187 0.954 1.877 0.253 0.26 0.538 0.491 0.848 0.686 0.092 0.095 0.561 0.564 1.162 0.852 0.312 0.149 0.64 0.262 0.978 0.34" fill="#000000"/><path d="M2.874 14.564v0.001l0.051 0.141c-0.006 -0.017 -0.026 -0.067 -0.051 -0.142" fill="#69C9D0"/><path d="M6.728 8.827a5.184 5.184 0 0 0 -1.466 0.832 5.504 5.504 0 0 0 -1.233 1.448c-0.122 0.2 -0.58 1 -0.636 2.303 -0.032 0.739 0.2 1.501 0.31 1.818v0.003c0.069 0.181 0.34 0.822 0.785 1.364q0.194 0.237 0.414 0.45a5.696 5.696 0 0 1 -1.246 -1.12c-0.44 -0.536 -0.712 -1.17 -0.783 -1.357v-0.006c-0.11 -0.317 -0.342 -1.08 -0.31 -1.82 0.056 -1.303 0.514 -2.103 0.636 -2.304a5.44 5.44 0 0 1 1.233 -1.447 5.184 5.184 0 0 1 1.466 -0.832 5.12 5.12 0 0 1 1.034 -0.292 5.376 5.376 0 0 1 1.617 -0.022v0.616a5.12 5.12 0 0 0 -1.821 0.366" fill="#69C9D0"/><path d="M13.148 2.589h-2.084v10.605c0 0.372 0 0.732 -0.129 1.091 -0.21 0.573 -0.658 1.091 -1.254 1.32 -0.896 0.345 -1.596 0.307 -2.431 -0.222a2.24 2.24 0 0 1 -0.54 -0.499c0.712 0.364 1.348 0.357 2.138 0.054 0.596 -0.23 1.044 -0.748 1.254 -1.321 0.131 -0.358 0.129 -0.718 0.129 -1.091V1.92h2.877s-0.032 0.264 0.04 0.669M17.088 5.754v0.59a4.672 4.672 0 0 1 -0.975 -0.339c-0.602 -0.288 -1.071 -0.757 -1.163 -0.852q0.161 0.1 0.331 0.182c0.732 0.35 1.453 0.454 1.807 0.419" fill="#69C9D0"/></svg>
