<svg width="512px" height="512px" viewBox="0 0 30.72 30.72" fill="none" xmlns="http://www.w3.org/2000/svg"><path cx="24" cy="24" r="20" fill="#1DA1F2" d="M28.16 15.36A12.8 12.8 0 0 1 15.36 28.16A12.8 12.8 0 0 1 2.56 15.36A12.8 12.8 0 0 1 28.16 15.36z"/><path fill-rule="evenodd" clip-rule="evenodd" d="M23.04 10.438a6.272 6.272 0 0 1 -1.81 0.496 3.162 3.162 0 0 0 1.386 -1.743 6.336 6.336 0 0 1 -2.001 0.765 3.151 3.151 0 0 0 -5.37 2.874 8.947 8.947 0 0 1 -6.496 -3.292 3.136 3.136 0 0 0 -0.426 1.585c0 1.092 0.555 2.058 1.402 2.623a3.136 3.136 0 0 1 -1.428 -0.394v0.039a3.155 3.155 0 0 0 2.528 3.091 3.168 3.168 0 0 1 -1.424 0.054 3.155 3.155 0 0 0 2.944 2.189A6.323 6.323 0 0 1 7.68 20.026a8.922 8.922 0 0 0 4.83 1.416c5.796 0 8.966 -4.801 8.966 -8.965q0 -0.205 -0.01 -0.408A6.4 6.4 0 0 0 23.04 10.438" fill="white"/></svg>
