<svg width="512px" height="512px" viewBox="0 0 30.72 30.72" fill="none" xmlns="http://www.w3.org/2000/svg"><path cx="24" cy="24" r="20" fill="#FF0000" d="M28.16 15.36A12.8 12.8 0 0 1 15.36 28.16A12.8 12.8 0 0 1 2.56 15.36A12.8 12.8 0 0 1 28.16 15.36z"/><path fill-rule="evenodd" clip-rule="evenodd" d="M22.592 10.482c0.256 0.256 0.44 0.573 0.534 0.922 0.543 2.188 0.417 5.641 0.01 7.912a2.067 2.067 0 0 1 -1.456 1.456C20.404 21.12 15.267 21.12 15.267 21.12s-5.137 0 -6.414 -0.348a2.067 2.067 0 0 1 -1.455 -1.456c-0.547 -2.177 -0.397 -5.633 -0.011 -7.901a2.067 2.067 0 0 1 1.456 -1.456c1.276 -0.348 6.414 -0.358 6.414 -0.358s5.137 0 6.414 0.348a2.067 2.067 0 0 1 0.922 0.534M17.884 15.36l-4.262 2.468v-4.937z" fill="white"/></svg>
